<svg xmlns="http://www.w3.org/2000/svg" xmlns:svg="http://www.w3.org/2000/svg" 
height="640" id="svg2" version="1.1" width="640" xml:space="preserve">
<path style="opacity:0.50000000000000000;fill:#ffffff;fill-opacity:1;stroke:none"
 d="M 324.0625 60.90625 C 183.20899 60.90625 69.03125 175.08399 69.03125 315.9375 C 69.03125 456.79101 183.20899 570.96875 324.0625 570.96875 C 464.91601 570.96875 579.09375 456.79101 579.09375 315.9375 C 579.09375 175.08399 464.91601 60.90625 324.0625 60.90625 z M 324.0625 112.65625 C 436.32169 112.65625 527.34375 203.67831 527.34375 315.9375 C 527.34375 428.19669 436.32169 519.1875 324.0625 519.1875 C 211.80331 519.1875 120.8125 428.19669 120.8125 315.9375 C 120.8125 203.67831 211.80331 112.65625 324.0625 112.65625 z " id="path3218" />
<path  style="opacity:0.50000000000000000;fill:#ffffff;fill-opacity:1;stroke:none" d="m 496.65262,315.92938 c 0,95.31441 -77.2676,172.582 -172.582,172.582 -95.31441,0 -172.582,-77.26759 -172.582,-172.582 0,-95.3144 77.26759,-172.582 172.582,-172.582 95.3144,0 172.582,77.2676 172.582,172.582 z" id="path3222" />
</svg>