<svg xmlns="http://www.w3.org/2000/svg" xmlns:svg="http://www.w3.org/2000/svg" 
height="640" id="svg2" version="1.1" width="640" xml:space="preserve">

<path
   style="fill:#ffffff;fill-opacity:1"
   d="m 322.71875,17.9375 c -2.21131,-4e-4 -4.41228,0.04068 -6.625,0.09375 C 201.71597,18.21318 91.372439,90.236572 45.1875,194.59375 5.7479358,280.37123 9.1594309,385.3924 56.375,467.375 c 45.19732,80.90707 128.91945,139.68116 221.28125,151.6875 85.95645,12.27168 176.9699,-14.08351 241.5625,-72.15625 C 583.7793,490.32203 623.25867,405.47032 622.03125,319.125 621.96797,230.38743 580.97539,142.37377 511.78125,86.8125 458.9264,43.541134 391.26921,17.949911 322.71875,17.9375 z m 19.9375,64.90625 c 47.67225,4.325626 93.77095,23.73989 130.40625,54.4375 -2.60722,2.62642 -5.203,5.22313 -7.8125,7.8125 -9.94505,-7.34436 -17.48781,-10.85223 -27.57178,-18.00859 l -139.07246,193.75 -11.73076,168.25859 47.96875,2.15625 7.6875,-157.5 121.34375,-168.3125 21.65625,21.75 c 7.44622,-4.58494 12.41296,-13.54317 19.375,-17.625 29.57915,36.22781 48.05962,81.47457 52.3125,128.03125 l -29.09375,0 0,44.3125 c 9.58436,1.75886 19.48886,-0.7204 29.03125,0.8125 -4.242,46.3099 -22.56304,90.99939 -51.6875,127.0625 C 499.26746,463.5242 493.05243,457.2806 486.875,451 l -31.4375,31.5625 c 5.53246,7.15867 13.04065,12.2381 18.5625,19.3125 -36.81603,31.34897 -83.45563,50.97421 -131.59375,55.3125 l 0,-27.84375 -44.65625,0 c -1.06173,9.10397 0.97062,19.3723 -0.75,27.78125 C 250.39103,552.79496 205.26741,534.10795 169.0625,504.46875 176.03881,497.50133 183.00374,490.72249 190,483.75 l -31.625,-31.625 c -7.73805,6.29283 -13.52888,14.46293 -21.3125,20.6875 -30.63632,-36.69031 -49.941606,-82.74165 -54.25,-130.40625 l 26.53125,0 0,-44.53125 c -8.79882,-1.12433 -17.674745,0.56116 -26.46875,-0.5 4.267133,-48.15775 24.19007,-94.75087 55.375,-131.5625 6.92754,6.94742 13.90027,13.85012 20.78125,20.84375 l 31.375,-31.28125 c -5.62368,-7.94202 -13.90518,-13.30814 -19.875,-20.96875 C 206.6179,105.34761 251.42904,86.698301 297.71875,83 l 0.96875,30 42.84375,0.6875 z"
   id="path3768"/>
</svg>